<?xml version="1.0" encoding="UTF-8"?>
<svg xmlns="http://www.w3.org/2000/svg" xmlns:xlink="http://www.w3.org/1999/xlink" width="48pt" height="48pt" viewBox="0 0 48 48" version="1.1">
<g id="surface7322492">
<path style=" stroke:none;fill-rule:nonzero;fill:rgb(3.529412%,17.647059%,12.156863%);fill-opacity:1;" d="M 22 6 L 22 16.316406 C 21.304688 16.035156 19.808594 16 19.070312 16 C 13.519531 16 8.378906 18.613281 8.378906 26 C 8.378906 34.839844 15.339844 36 20 36 C 21.839844 36 26 35.816406 28 35.238281 L 28 6 Z M 32 6 L 32 12 L 38 12 L 38 6 Z M 32 16 L 32 33.402344 C 32 36.433594 30.15625 39.589844 26 41.402344 L 31.71875 43.992188 C 37.53125 41.992188 38 35.402344 38 33.402344 L 38 16 Z M 19.941406 21.101562 C 20.582031 21.101562 21.300781 21.21875 22 21.378906 L 22 30.785156 C 21.300781 30.945312 20.582031 31.066406 19.941406 31.066406 C 17.320312 31.066406 14.78125 30.238281 14.78125 26 C 14.78125 21.761719 17.320312 21.101562 19.941406 21.101562 Z M 19.941406 21.101562 "/>
</g>
</svg>
